<svg xmlns="http://www.w3.org/2000/svg" xmlns:xlink="http://www.w3.org/1999/xlink" width="180.071" height="44.148" viewBox="0 0 180.071 44.148">
  <defs>
    <clipPath id="clip-path">
      <rect id="Rectangle_106" data-name="Rectangle 106" width="38.28" height="21.874" fill="#3b99e9"/>
    </clipPath>
    <clipPath id="clip-path-2">
      <rect id="Rectangle_107" data-name="Rectangle 107" width="11.937" height="20.874" fill="#306bad"/>
    </clipPath>
    <clipPath id="clip-path-3">
      <rect id="Rectangle_108" data-name="Rectangle 108" width="19.14" height="26.142" fill="#c6dbf1"/>
    </clipPath>
    <clipPath id="clip-path-4">
      <rect id="Rectangle_109" data-name="Rectangle 109" width="11.937" height="20.874" fill="#275d9a"/>
    </clipPath>
    <clipPath id="clip-path-5">
      <rect id="Rectangle_110" data-name="Rectangle 110" width="13.671" height="15.672" fill="#fff"/>
    </clipPath>
  </defs>
  <g id="Group_160413" data-name="Group 160413" transform="translate(-22.159 -20)">
    <g id="Group_158019" data-name="Group 158019" transform="translate(-27.841 -11.866)">
      <g id="Group_73" data-name="Group 73" transform="translate(100.148 33.77)">
        <path id="Path_70" data-name="Path 70" d="M550.87,296.9a3.617,3.617,0,0,1,2.734,1.067,3.77,3.77,0,0,1,1.067,2.734v4.8a3.91,3.91,0,0,1-.267,1.534,5.233,5.233,0,0,1-.734,1.2,2.791,2.791,0,0,1-1.2.734,3.913,3.913,0,0,1-1.534.267H545v6.669h-3.8v-18.94h9.67Zm-.934,8.736c.6,0,.867-.267.867-.867v-3.334c0-.6-.267-.867-.867-.867H545V305.7h4.935Z" transform="translate(-541.2 -296.833)" fill="#fff"/>
        <path id="Path_71" data-name="Path 71" d="M572.27,301.268c0-.6-.267-.867-.867-.867h-4.135c-.6,0-.867.267-.867.867v10.2c0,.6.267.867.867.867H571.4c.6,0,.867-.267.867-.867v-2.334h3.8v3.068a3.91,3.91,0,0,1-.267,1.534,5.231,5.231,0,0,1-.734,1.2,2.791,2.791,0,0,1-1.2.734,3.913,3.913,0,0,1-1.534.267h-6a3.912,3.912,0,0,1-1.534-.267,5.23,5.23,0,0,1-1.2-.734,2.79,2.79,0,0,1-.734-1.2,3.705,3.705,0,0,1-.267-1.534V300.535a3.911,3.911,0,0,1,.267-1.534,5.23,5.23,0,0,1,.734-1.2,2.791,2.791,0,0,1,1.2-.734,3.706,3.706,0,0,1,1.534-.267h6a3.617,3.617,0,0,1,2.734,1.067,3.771,3.771,0,0,1,1.067,2.734v3.068h-3.8v-2.4Z" transform="translate(-548.329 -296.8)" fill="#fff"/>
        <path id="Path_72" data-name="Path 72" d="M593.8,301.268c0-.6-.267-.867-.867-.867h-3.8c-.6,0-.867.267-.867.867v1.8c0,.267.067.534.2.6a1.547,1.547,0,0,0,.667.267L594,305a9.448,9.448,0,0,1,1.467.467,3.786,3.786,0,0,1,1.2.8,3.486,3.486,0,0,1,.8,1.134,3.1,3.1,0,0,1,.333,1.4v3.4a3.915,3.915,0,0,1-.267,1.534,5.239,5.239,0,0,1-.734,1.2,2.448,2.448,0,0,1-1.2.734,3.913,3.913,0,0,1-1.534.267h-5.935a3.913,3.913,0,0,1-1.534-.267,5.229,5.229,0,0,1-1.2-.734,2.79,2.79,0,0,1-.734-1.2,3.708,3.708,0,0,1-.267-1.534v-2.4h3.668v1.667c0,.6.267.867.867.867h4.135c.6,0,.867-.267.867-.867v-2c0-.267-.067-.534-.2-.6a1.55,1.55,0,0,0-.667-.267l-4.868-1.067a9.445,9.445,0,0,1-1.467-.467,3.786,3.786,0,0,1-1.2-.8,3.487,3.487,0,0,1-.8-1.134,3.1,3.1,0,0,1-.333-1.4v-3.2a3.914,3.914,0,0,1,.267-1.534,5.232,5.232,0,0,1,.734-1.2,2.79,2.79,0,0,1,1.2-.734,3.707,3.707,0,0,1,1.534-.267h5.6a3.375,3.375,0,0,1,2.667,1.067,3.771,3.771,0,0,1,1.067,2.734v2.2H593.8Z" transform="translate(-555.59 -296.8)" fill="#fff"/>
      </g>
      <g id="Group_74" data-name="Group 74" transform="translate(100.428 60.888)">
        <path id="Path_73" data-name="Path 73" d="M521.8,337.068l.333-1h.534v-.4c0-.8.333-1.467,1.267-1.467.8,0,1.267.4,1.334,1.334h-.934A.311.311,0,0,0,524,335.2c-.267,0-.333.2-.333.534v.4h.867s.333,0,.4-.2l.667.6a1.178,1.178,0,0,1-1.134.6H521.8Zm10.937-.6v1.667a2.3,2.3,0,0,0,2.334,2.6h1.267V339h-1.067c-.467,0-.734-.267-.734-.8v-3.268h-4.6a1.9,1.9,0,0,0-1.267,3.468c1.2.8,1.867,1.134,1.867,1.734,0,.8-.667,1.067-1.4,1.067h-3.868a1.6,1.6,0,0,1-1.4-2.6l-1.334-.934a3.329,3.329,0,0,0,2.8,5.335H529.2a2.92,2.92,0,0,0,3.068-2.868c0-1.534-1.2-2.067-2.534-2.8-.667-.4-.467-.867.067-.867Z" transform="translate(-521.8 -332.266)" fill="#fff"/>
        <path id="Path_74" data-name="Path 74" d="M543.6,339.769v-1.734h1.534c.467,0,.734-.267.734-.8v-3.268H547.6v3.2a2.3,2.3,0,0,1-2.334,2.6Zm3.668-8.47v1.534h-1.8V331.3Z" transform="translate(-529.062 -331.3)" fill="#fff"/>
        <path id="Path_75" data-name="Path 75" d="M554.234,339.769H552.5V331.3h1.734Z" transform="translate(-532.026 -331.3)" fill="#fff"/>
        <path id="Path_76" data-name="Path 76" d="M559,341.6a5.726,5.726,0,0,0,1.134.2c.267,0,1.267,0,1.534-.734h-1a3,3,0,0,1-3.068-3,2.859,2.859,0,0,1,3.068-2.868h2.868v4.068h1.934V341h-1.934a2.876,2.876,0,0,1-3.134,2.267,3.936,3.936,0,0,1-.934-.133Zm2.734-4.735H560.6a1.269,1.269,0,0,0,0,2.534h1.134Z" transform="translate(-533.725 -332.599)" fill="#fff"/>
        <path id="Path_77" data-name="Path 77" d="M577.936,339.368h.934V341.1h-.8a2.78,2.78,0,0,1-1.6-.6,3,3,0,0,1-4.8.133,2.188,2.188,0,0,1-1.4.4H569.2V339.3h.934a.788.788,0,0,0,.8-.8A3.044,3.044,0,0,1,574,335.3a3.011,3.011,0,0,1,3.068,3.068C577.136,338.968,577.4,339.368,577.936,339.368Zm-2.668-.8c0-.934-.333-1.667-1.267-1.667s-1.267.734-1.267,1.667c0,1.067.333,1.8,1.267,1.8C574.935,340.3,575.269,339.568,575.269,338.568Z" transform="translate(-537.589 -332.632)" fill="#fff"/>
        <path id="Path_78" data-name="Path 78" d="M583.6,339.769v-1.734h1.534c.467,0,.734-.267.734-.8V331.3H587.6v5.869a2.3,2.3,0,0,1-2.334,2.6Z" transform="translate(-542.386 -331.3)" fill="#fff"/>
        <path id="Path_79" data-name="Path 79" d="M594.234,339.769H592.5V331.3h1.734Z" transform="translate(-545.351 -331.3)" fill="#fff"/>
        <path id="Path_80" data-name="Path 80" d="M607.66,342.036a3.622,3.622,0,0,1-2.6,1.134,3.556,3.556,0,0,1-3.668-4h3.068a12,12,0,0,1-1.267-1.6c.467-2.6,2.067-2.868,3.2-2.868h0c1.067,0,2.734.333,3.2,2.934a12.006,12.006,0,0,1-1.267,1.6h2.267v1.734h-2.667a3.395,3.395,0,0,0-2.934,0h-1.267a1.911,1.911,0,0,0,1.4.534,2.054,2.054,0,0,0,.867-.2Zm-2.6-4.668a1.273,1.273,0,1,0,2.534,0,1.392,1.392,0,0,0-1.267-1.067A1.517,1.517,0,0,0,605.059,337.368Z" transform="translate(-548.307 -332.433)" fill="#fff"/>
        <path id="Path_81" data-name="Path 81" d="M623.736,339.368h.934V341.1h-.8a2.779,2.779,0,0,1-1.6-.6,3,3,0,0,1-4.8.133,2.188,2.188,0,0,1-1.4.4H615V339.3h.934a.788.788,0,0,0,.8-.8,3.044,3.044,0,0,1,3.068-3.2,3.011,3.011,0,0,1,3.068,3.068C622.936,338.968,623.2,339.368,623.736,339.368Zm-2.668-.8c0-.934-.333-1.667-1.267-1.667s-1.267.734-1.267,1.667c0,1.067.333,1.8,1.267,1.8C620.735,340.3,621.069,339.568,621.069,338.568Z" transform="translate(-552.846 -332.632)" fill="#fff"/>
        <path id="Path_82" data-name="Path 82" d="M630.6,331.3v1.534h-1.8V331.3Zm-1.467,8.47v-1.734H630.4a.952.952,0,0,0,1.067-1.067v-2.6H633.2v2.4a1.158,1.158,0,0,0,1.267,1.267h.867v1.734h-.8a2.22,2.22,0,0,1-1.867-.934,2.114,2.114,0,0,1-1.8.934Zm4.068-8.47v1.534h-1.8V331.3Z" transform="translate(-557.443 -331.3)" fill="#fff"/>
        <path id="Path_83" data-name="Path 83" d="M639.134,337.768c.067-2,1.734-2.868,3.334-2.868a4.4,4.4,0,0,1,4.4,4.4H648.8v1.734H638.4V339.3h6.669a2.633,2.633,0,0,0-2.6-2.868c-.867,0-1.6.333-1.667,1.334Zm4.4,4V343.3h-1.8v-1.534Z" transform="translate(-560.641 -332.499)" fill="#fff"/>
        <path id="Path_84" data-name="Path 84" d="M654,340.869v-1.734h1.467a.719.719,0,0,0,.734-.8v-.6a2.986,2.986,0,0,1,3.068-3.134,3.026,3.026,0,0,1,3.068,3.134A3.137,3.137,0,0,1,659.268,341a2.884,2.884,0,0,1-2.134-.867,1.957,1.957,0,0,1-1.534.667H654Zm5.2-4.8c-.934,0-1.267.867-1.267,1.667,0,.934.333,1.8,1.267,1.8s1.267-.734,1.267-1.8C660.536,336.8,660.2,336.067,659.2,336.067Z" transform="translate(-565.837 -332.399)" fill="#fff"/>
      </g>
      <g id="Group_75" data-name="Group 75" transform="translate(200.594 60.888)">
        <path id="Path_85" data-name="Path 85" d="M676.2,337.334a2.053,2.053,0,0,1-.667.067h-1.2A1.455,1.455,0,0,0,672.8,339v4.2H672v-4.068a2.08,2.08,0,0,1,2.067-2.4h1.2A1.461,1.461,0,0,0,676.6,336a2.555,2.555,0,0,1,2.2-1.2,3.164,3.164,0,0,1,0,6.269c-1.867,0-2.734-1.6-2.734-3.134C676.135,337.734,676.135,337.534,676.2,337.334Zm4.668.6c0-1.067-.534-2.468-2-2.468s-2,1.4-2,2.468.6,2.467,2,2.467A2.2,2.2,0,0,0,680.87,337.934Z" transform="translate(-672 -332.466)" fill="#fff"/>
        <path id="Path_86" data-name="Path 86" d="M691.367,339.769c-1.934,0-2.067-1.667-2.067-2.4V331.3h.734v6.2a1.455,1.455,0,0,0,1.534,1.6h.6v.667Z" transform="translate(-677.763 -331.3)" fill="#fff"/>
        <path id="Path_87" data-name="Path 87" d="M695.934,336.635a4.386,4.386,0,0,1,4.135-2.4c1.6,0,3.335.867,3.335,2.934a2.559,2.559,0,0,1-.867,2H705.2v.667H693.4v-.667h1.934v-7.8H696Zm4.735,2.468a2.065,2.065,0,0,0,2.067-2,2.386,2.386,0,0,0-2.467-2.267,4.253,4.253,0,0,0-4.4,4.268Zm-.534-6.936h-.8V331.3h.8Z" transform="translate(-679.129 -331.3)" fill="#fff"/>
        <path id="Path_88" data-name="Path 88" d="M711.1,339.769V339.1h1.134a1.423,1.423,0,0,0,1.534-1.6v-3.535h.734v3.468a2.08,2.08,0,0,1-2.067,2.4H711.1Zm1.934-7.6h-.8V331.3h.8Z" transform="translate(-685.025 -331.3)" fill="#fff"/>
      </g>
    </g>
    <g id="Group_158089" data-name="Group 158089" transform="translate(-27.841 -11.866)">
      <g id="Group_157143" data-name="Group 157143" transform="translate(50 31.866)">
        <g id="Group_78" data-name="Group 78" opacity="0.5">
          <g id="Group_77" data-name="Group 77">
            <g id="Group_76" data-name="Group 76" clip-path="url(#clip-path)">
              <path id="Path_89" data-name="Path 89" d="M507.213,283.337l-19.14,10.937L469,283.337,488.073,272.4Z" transform="translate(-468.933 -272.4)" fill="#1f5786"/>
            </g>
          </g>
        </g>
        <g id="Group_81" data-name="Group 81" transform="translate(19.206 23.208)" opacity="0.58">
          <g id="Group_80" data-name="Group 80">
            <g id="Group_79" data-name="Group 79" clip-path="url(#clip-path-2)">
              <path id="Path_90" data-name="Path 90" d="M479.7,314.4l11.937-7.2v13.871l-11.937,7" transform="translate(-479.7 -307.2)" fill="#306bad"/>
            </g>
          </g>
        </g>
        <g id="Group_84" data-name="Group 84" transform="translate(19.14 10.937)" opacity="0.7">
          <g id="Group_83" data-name="Group 83" transform="translate(0 0)">
            <g id="Group_82" data-name="Group 82" clip-path="url(#clip-path-3)">
              <path id="Path_91" data-name="Path 91" d="M487.406,311.408l-6.535,3.535V301.071L469,308.273v-8.6l19.073-10.87v22.208h0Z" transform="translate(-468.933 -288.8)" fill="#c6dbf1"/>
            </g>
          </g>
        </g>
        <g id="Group_87" data-name="Group 87" transform="translate(7.203 23.275)" opacity="0.68">
          <g id="Group_86" data-name="Group 86">
            <g id="Group_85" data-name="Group 85" clip-path="url(#clip-path-4)">
              <path id="Path_92" data-name="Path 92" d="M509.637,314.5,497.7,307.3v13.871l11.937,7" transform="translate(-497.7 -307.3)" fill="#3b99e9"/>
            </g>
          </g>
        </g>
        <g id="Group_88" data-name="Group 88" transform="translate(0.067 10.937)">
          <path id="Path_93" data-name="Path 93" d="M498.367,311.408l6.536,3.6V301.138l11.871,7.2v-8.6L497.7,288.8v22.274h0Z" transform="translate(-497.7 -288.8)" fill="#fff"/>
        </g>
        <g id="Group_91" data-name="Group 91" transform="translate(5.469 3.135)">
          <g id="Group_90" data-name="Group 90" transform="translate(0 0)">
            <g id="Group_89" data-name="Group 89" clip-path="url(#clip-path-5)">
              <path id="Path_94" data-name="Path 94" d="M511.371,292.705,497.7,284.9l13.671-7.8" transform="translate(-497.7 -277.1)" fill="#fff"/>
            </g>
          </g>
        </g>
      </g>
    </g>
  </g>
</svg>
